<svg height="512" viewBox="0 0 448 512" width="448" xmlns="http://www.w3.org/2000/svg"><path d="m48 32c-26.5 0-48 21.5-48 48v352c0 26.5 21.5 48 48 48h352c26.5 0 48-21.5 48-48v-352c0-26.5-21.5-48-48-48zm176.125 64c.89785.00766 1.79767.180969 2.67969.568359 1.61984.43884 3.44735 1.93877 4.91406 2.84375l11.96484 17.177731c9.84666 12.63886 20.19514 25.88894 30.84571 37.84961l26.28711 27.82227c23.78792 23.96339 49.03693 45.09003 76.13671 63.76758l.86329.14062c3.46133 2.23144 5.80773 6.25595 6.18359 10.33985-.144 8.85119-10.21254 10.62579-15.48438 15.39453-52.66102 38.67744-99.79296 86.58211-136.95703 139.92187l-2.99218 3.04492c-3.01072 1.85764-6.90387 1.10634-10.0586 0-4.03046-1.33051-4.4716-5.81624-7.04883-8.54492-8.21842-12.93061-18.72022-25.0802-27.66015-37.13281-5.30795-5.42258-9.70746-11.16449-15.13281-16.93945-30.56513-33.93561-64.90507-63.69411-100.82227-88.75977-2.550614-2.58716-4.688962-6.02091-3.511719-10.18164 1.097385-4.62692 6.367904-7.36651 9.916016-10.17383 44.853113-31.19224 85.964833-71.88529 120.695313-115.46484l21.65039-28.568361c2.15906-1.65945 4.83771-3.128448 7.53125-3.105469zm-.92578 41.27539c-3.61702.06776-7.1847 1.1817-10.48633 3.78516-10.14123 7.37439-19.75513 14.87737-29.42969 23.35547-.81738.5308-1.77807 1.64248-2.29687 2.16406-22.53192 20.37815-44.84406 42.68651-63.0586 66.20703-5.14026 6.77193-10.57316 13.38231-12.55468 21.41601-.06671 4.30666.57897 8.3366 2.87109 11.60157 15.416 23.27303 35.82598 45.52178 56.16602 64.6289 17.53717 15.86094 34.43327 33.26846 54.4707 43.89453 6.59859 3.13129 14.02607-.51284 19.53125-4.45898 27.22119-19.40407 51.538-43.72841 74.58984-68.86719 10.65492-13.26422 22.84051-25.37305 28.83789-40.5625 1.62933-6.01135-.94738-11.14689-3.86328-15.67773-17.98266-26.03455-39.8752-50.66125-63.44726-72.81836l-1.54688-.90234c-8.51043-8.34994-18.20881-16.51937-27.51953-23.73047-6.11136-5.26772-14.30624-10.18422-22.26367-10.03516zm1.28516 7.75195c7.67653.06519 14.69959 7.04755 20.97851 11.51563 32.36546 26.39653 62.90852 56.61038 86.18164 90.72851 2.9345 4.40416 4.25972 11.23929 1.62891 16.22266-6.0335 10.19649-14.17512 19.50247-21.89258 28.95313v.51367c-19.24374 20.75384-39.56356 42.08768-61.52344 59.66406-10.71728 6.60718-20.55606 21.03834-34.36133 12.09961-31.43211-23.273-61.51039-52.20757-87.00781-83.24023-4.32249-6.82216-11.07482-12.41208-14.08008-20.14844-4.19744-10.48018 5.0543-17.99677 10.34766-25.88867 25.99875-32.48618 58.28864-64.34206 91.83789-87.83008 2.70092-1.86457 5.33178-2.61157 7.89063-2.58985zm-1.06836 24.00391-2.92774 9.52344-14.68555 42.61719c3.67718.37972 8.23098-.00083 11.8418.3789v.35352l-2.14844 48.20703.3711.50586c4.69873.46609 10.56349.70365 15.35156-.12305v-.75976l-1.91797-46.75586.28906-1.58204 12.91993-.22265c-6.444-17.25095-12.69487-34.67551-18.71485-52.14258zm-34.84766 61.95313c-5.37468.30141-10.28606 2.68437-15.13281 4.82421-8.23592 4.18401-20.3534 10.5085-19.01758 21.95313 1.76385 6.24924 8.44316 10.28604 13.72851 12.85547 29.21218 13.03998 67.99092 13.4844 98.83204 3.75h.00195c7.61355-2.97205 17.83446-7.28368 19.23047-16.73438-.08133-7.80842-8.23906-12.72393-14.10156-15.71484v-.36914c2.04385-.81855 4.39421-1.55501 6.51171-1.7793v-.21094c-10.32935-1.87499-20.30335-4.61273-30.30859-7.29297 1.92791 4.4485 3.31713 9.13887 4.92383 13.76172 3.00671-.97406 6.08994-1.71478 9.33398-2.16211 5.2759 2.08038 12.82893 5.05669 13.57813 11.74219.58663 6.24923-6.16553 9.29509-10.42969 11.83203-22.62269 8.34033-48.07475 9.15372-71.66797 2.8125-6.51728-2.08038-15.92254-4.75028-16.73047-13.1582 4.62547-11.06488 16.58992-13.3702 26.58203-16.05859-5.13477-3.35289-10.35526-6.31965-15.33398-10.05078zm26.63476 52.89843c-.87608 17.11835-1.09127 32.96259-2.34179 50.12305 6.68789.61752 14.23326 1.2052 21.36523.1543l-2.13086-47.83985-.375-2.27734c-5.42936.21618-10.5694.43417-16.51758-.16016z"/></svg>