<svg height="512" viewBox="0 0 448 512" width="448" xmlns="http://www.w3.org/2000/svg"><path d="m48 32c-26.5 0-48 21.5-48 48v352c0 26.5 21.5 48 48 48h352c26.5 0 48-21.5 48-48v-352c0-26.5-21.5-48-48-48zm57.66406 64.009766c2.13601.144985 5.00391 1.902343 5.00391 1.902343l92.66406 56.820311c9.06366 5.55829 11.16211 13.38867 11.16211 13.38867 9.00386 33.8075 8.02718 30.33247 9.00391 33.80664l8.73242 32.58594 15.08789 56.31445c.07754.28907.11822.5586.16992.83594 1.36431 7.234-5.5332 10.46094-5.5332 10.46094l-17.45117 8.11328s-30.29014 14.0757-82.30274 38.25c-7.46315 3.46777-9.55859-4.35742-9.55859-4.35742l-32.724611-122.12891c-2.098755-7.82862 5.363281-11.29687 5.363281-11.29687l24.92773-11.58399.00391-.00195-26.51172-98.93555c-.91768-3.425525.30156-4.286587 1.96289-4.173824zm203.78711 66.779294c4.52108.07801 5.90625 5.2461 5.90625 5.2461l32.72461 122.12695c2.09875 7.82862-5.36233 11.29687-5.36133 11.29687l-24.89258 11.57032c26.46792 98.77839 7.9778 29.77872 26.46876 98.78515 2.09757 7.82979-6.9629 2.27149-6.9629 2.27149l-92.66406-56.82032c-9.06366-5.55829-11.16211-13.38671-11.16211-13.38671l-.10156-.41407-6.7168-25.1289 24.9961-11.6875s6.21379-4.23094 5.53125-10.46094c-.05286-.27616-.08962-.54803-.16602-.83594l-14.51367-54.39844.02148.01368-11.4707-42.78711 74.71094-34.50391c1.39891-.65021 2.60902-.90472 3.65234-.88672z"/></svg>